<svg preserveAspectRatio="none" width="100%" height="100%" overflow="visible" style="display: block;" viewBox="0 0 305.015 13" fill="none" xmlns="http://www.w3.org/2000/svg">
<path id="Line 80" d="M23.6008 12.8962C23.7895 12.8797 24.5486 12.9198 24.8772 12.9128C24.5047 13.0872 22.92 12.956 23.6008 12.8962ZM57.3086 0.232912C57.0359 0.276025 56.7633 0.319138 56.4906 0.36225C57.2654 0.390264 58.3069 0.35862 59.026 0.399544C59.1435 0.406417 58.8385 0.531243 59.1167 0.536818C59.3951 0.542356 59.3414 0.371769 59.7462 0.353522C60.2003 0.333573 62.2794 0.452416 62.9995 0.449533C65.6925 0.438018 68.4086 0.340598 71.107 0.411447C68.3212 0.537652 71.1284 0.6661 71.9087 0.611405C72.0816 0.598742 72.054 0.281605 74.849 0.361457C76.6252 0.41213 74.9846 0.86552 77.9486 0.638384C75.6694 0.321205 77.9108 0.343434 79.6974 0.332891C80.0055 0.331023 82.493 0.378677 83.5918 0.364631C83.9678 0.359745 84.5406 0.193629 85.0393 0.18927C85.3825 0.186395 85.642 0.277211 86.1516 0.272586C88.5273 0.252116 90.8636 0.245054 93.2434 0.27576C91.8527 0.70264 94.335 0.457691 94.4465 0.4781C95.0135 0.594001 92.4492 0.626991 93.4633 0.699482C94.8805 0.686257 96.2977 0.673033 97.7149 0.659808C96.5518 0.607395 99.2548 0.300335 99.7523 0.440012C99.5332 0.0628052 106.211 0.768318 107.228 0.642351C107.44 0.615744 106.054 0.429315 109.269 0.5146C109.617 0.524076 109.485 0.637884 109.668 0.627275C109.777 0.620895 110.439 0.259172 111.144 0.459056C111.402 0.53201 109.754 0.769583 113.373 0.67409C111.932 0.305928 118.39 0.474708 119.578 0.56697C119.34 0.517509 119.103 0.468048 118.866 0.418588C120.04 0.552015 120.252 0.426842 120.517 0.433664C121.583 0.461063 123.049 0.587211 124.042 0.575698C125.205 0.562453 125.209 0.333491 126.564 0.422555C126.242 0.372037 125.921 0.321518 125.599 0.270999C126.535 0.283166 127.471 0.295333 128.407 0.3075C126.24 0.610582 128.874 0.321959 129.048 0.315434C129.325 0.304404 128.927 0.428484 129.39 0.413033C129.438 0.41049 129.369 0.293644 130.082 0.280521C131.573 0.253501 131.338 0.400412 131.964 0.39875C132.021 0.397993 131.82 0.292728 132.902 0.267825C136.338 0.188548 132.884 0.348493 132.753 0.363044C132.579 0.382235 133.758 0.82214 130.839 0.666156C131.819 0.715814 131.917 0.910479 132.028 0.915311C132.125 0.919284 133.824 0.891863 133.917 0.885159C134.752 0.819054 134.018 0.686027 134.18 0.662189C134.313 0.642971 136.359 0.816331 136.839 0.416207C137.818 0.785275 136.276 0.751462 134.634 0.80819C134.395 0.883924 136.197 0.957568 136.292 0.957366C138.618 0.956692 137.33 0.653112 137.838 0.459056C138.106 0.357521 139.053 0.564633 138.178 0.292423C140.289 0.26369 139.009 0.421429 139.145 0.444773C139.351 0.479071 140.089 0.401054 140.182 0.411447C140.318 0.426831 139.846 0.521077 140.381 0.554275C140.47 0.559101 141.332 0.39692 140.22 0.319402C141.705 0.342458 141.583 0.204165 142.087 0.482861C143.109 -0.0443954 142.829 0.794517 143.231 0.824059C144.302 0.901936 143.992 0.48797 144.048 0.467784C144.438 0.338423 147.403 0.480628 148.137 0.420968C147.847 0.719131 145.787 0.424224 145.326 0.482067C143.79 0.674509 147.491 0.631137 146.375 1.00577C146.843 0.90288 147.311 0.799991 147.779 0.697102C148.636 0.937975 147.42 1.04301 149.728 0.954985C150.105 0.74708 148.096 0.987823 148.499 0.824059C148.736 0.727947 150.075 0.707305 150.101 0.656634C150.127 0.595639 148.918 0.667926 149.109 0.574111C149.525 0.371659 153.936 0.564393 150.578 0.674884C151.515 0.671424 151.997 1.07411 152.81 0.948637C153.335 0.867197 150.38 0.311049 154.813 0.413033C154.908 0.603182 153.041 0.469183 152.992 0.483654C152.924 0.504718 153.262 0.933805 153.321 0.954985C153.527 1.02472 158.055 0.794949 159.011 1.01053C158.633 0.762532 162.433 0.966276 162.846 0.890713C162.957 0.869851 162.545 0.717942 162.663 0.701862C163.397 0.606165 165.385 0.877338 166.307 0.884365C167.339 0.892326 167.208 0.761126 167.266 0.761374C167.72 0.768693 167.357 0.857636 167.634 0.857387C168.054 0.856959 170.935 0.875151 171.08 0.856593C171.122 0.850809 170.652 0.700933 171.28 0.672503C171.389 0.667578 171.32 0.845272 173.18 0.768516C175.42 0.676199 171.624 0.547543 172.555 0.361457C173.994 0.626412 173.947 0.363852 174.338 0.384468C174.473 0.391977 175.478 0.615212 176.57 0.601089C175.787 0.637326 175.003 0.673562 174.219 0.709798C174.989 0.74894 176.486 0.700491 177.121 0.744711C177.43 0.766236 177.175 0.949624 177.848 0.94467C177.991 0.94262 178.557 0.495832 176.795 0.696308C176.654 0.536774 177.493 0.640661 177.882 0.595535C177.941 0.588504 178.173 0.321983 178.669 0.487621C178.789 0.528373 177.49 1.30583 180.839 0.743124C180.947 0.724988 180.572 0.627622 180.678 0.607438C180.75 0.593769 181.605 0.633154 181.699 0.61934C181.796 0.604518 181.383 0.498221 181.498 0.477305C182.088 0.369528 182.862 0.791117 181.646 0.758994C182.052 0.811099 182.459 0.863205 182.865 0.915311C182.43 0.597573 183.504 0.825912 184.066 0.816125C187.67 0.753587 185.257 0.546933 185.876 0.440012C186.873 0.268338 186.112 0.812082 187.592 0.648699C187.728 0.633424 185.94 0.402613 189.432 0.53285C188.917 0.541842 188.401 0.550836 187.886 0.559829C188.183 0.867152 189.747 0.538747 189.867 0.534437C191.239 0.492239 190.312 0.603029 192.348 0.444773C192.53 0.430564 192.926 0.506411 193.315 0.468577C194.927 0.312713 191.188 0.373996 191.086 0.249575C191.037 0.18861 195.058 0.203963 195.196 0.232912C195.783 0.361235 193.374 0.289432 193.833 0.44874C194 0.505306 199.732 0.389128 200.882 0.45112C202.208 0.52326 202.806 0.939933 202.814 0.471751C203.189 0.931313 203.519 0.617763 203.689 0.620927C205.741 0.663469 205.745 0.668106 207.504 0.624101C207.893 0.614536 208.221 0.753973 208.358 0.730429C208.438 0.716208 208.289 0.566988 208.681 0.520947C209.225 0.457963 212.496 0.611441 212.739 0.693928C212.982 0.776416 211.358 0.7297 211.649 0.865321C212.825 0.879031 213.952 0.845474 215.136 0.859767C215.628 0.86611 215.375 0.961032 215.587 0.96292C215.678 0.964087 217.376 0.880497 217.304 0.845484C217.135 0.764067 211.893 0.818794 213.273 0.652666C213.54 0.620566 214.481 0.839307 214.331 0.573318C219.015 0.633623 223.698 0.693928 228.382 0.754232C225.691 0.953179 222.662 0.775254 219.844 0.793907C219.457 0.79621 218.151 0.770555 218.31 0.904995C220.707 0.9398 223.687 0.869753 225.988 0.957366C226.062 0.960264 225.792 1.08105 226.068 1.10019C226.583 1.13592 228.262 0.94111 228.545 0.991486C228.593 1.00322 227.637 1.16246 227.928 1.26365C228.674 1.52334 228.863 0.948171 229.505 0.954985C230.001 0.9605 233.333 1.2386 234.163 1.0629C235.046 0.875618 231.707 0.954172 231.954 0.801048C234.213 0.647167 236.5 0.81149 238.635 0.79232C238.673 0.791832 238.346 0.671836 238.822 0.655047C239.651 0.625829 239.869 0.796037 240.272 0.823266C240.707 0.852252 242.246 0.82786 242.451 0.889919C242.478 0.898056 242.166 1.06688 242.119 1.07163C241.448 1.14121 241.21 0.922091 241.149 0.919278C240.92 0.91097 240.695 0.994897 240.486 0.989899C240.142 0.981564 239.953 0.903915 239.498 0.89706C239.185 0.892043 239.487 1.04115 239.185 1.03433C239.074 1.03123 237.878 0.690747 237.767 1.0383C237.732 1.14788 247.513 1.28861 248.49 1.20097C247.652 1.15918 246.813 1.11739 245.975 1.07559C247.677 1.17732 249.723 0.899622 249.868 1.31047C256.182 1.34406 262.497 1.37765 268.811 1.41124C269.939 1.44624 269.321 1.71026 271.176 1.63342C270.696 1.54931 270.217 1.4652 269.738 1.38109C270.688 1.44009 274.901 1.55537 275.583 1.5009C275.671 1.49377 275.794 1.25482 276.847 1.23429C277.781 1.21617 277.931 1.3952 278.43 1.42949C278.85 1.45779 279.321 1.41088 279.445 1.42076C279.541 1.42868 279.578 1.53815 279.808 1.55724C280.533 1.61627 279.946 1.30802 280.666 1.66198C280.49 1.67547 280.315 1.68896 280.14 1.70245C281.015 1.75368 282.211 1.91438 280.922 1.99366C280.7 2.00735 280.89 1.90143 280.725 1.90162C274.25 1.9213 279.42 2.12718 281.689 1.96271C282.272 2.11965 285.538 2.02383 285.647 2.05476C285.798 2.09955 285.239 2.22498 285.971 2.33327C286.125 2.3562 290.492 2.26832 288.92 2.47689C288.595 2.51992 286.502 2.47472 285.997 2.48086C287.184 2.81349 289.968 2.33693 290.281 2.34914C291.544 2.40098 287.855 2.63741 290.7 2.67606C292.887 2.70572 290.834 2.48362 291.675 2.38882C292.148 2.33562 294.623 2.58029 294.556 2.26345C295.406 2.22961 294.908 2.39738 295.013 2.40945C295.116 2.42006 296.786 2.3252 297.329 2.39199C297.394 2.4003 297.187 2.56499 297.255 2.57846C297.388 2.60153 298.999 2.56861 299.063 2.55466C299.105 2.54496 298.721 2.40077 298.878 2.36581C299.062 2.32548 300.613 2.35942 300.698 2.3182C300.819 2.25588 298.905 2.29693 299.224 2.13569C300.106 2.17629 301.544 2.06871 302.126 1.93891C301.983 1.97602 301.128 1.98135 300.831 1.96827C300.971 1.73212 302.807 1.73534 302.179 1.92225C302.579 1.82187 302.306 1.76861 302.531 1.67388C302.59 1.64989 303.157 1.64495 303.266 1.60406C303.28 1.59591 302.695 1.50681 302.812 1.45885C303.025 1.37218 304.744 1.39167 304.885 1.41441C305.281 1.47885 303.879 1.55682 303.762 1.65643C303.745 1.67172 304.938 1.86692 304.956 1.88416C305.025 2.06912 303.699 1.93583 303.85 2.10237C304.178 2.13755 304.507 2.17272 304.835 2.2079C303.569 2.37655 301.228 2.28983 300.624 2.48165C302.5 2.42457 304.464 2.43132 304.46 2.86332C304.459 3.04526 303.649 3.15191 303.68 3.19817C303.8 3.36369 304.924 3.18388 304.965 3.19262C304.999 3.20271 305.015 3.21253 305.015 3.22209C305.015 3.22209 305.015 3.2221 305.015 3.2221C305.015 3.31901 303.413 3.3888 303.333 3.43305C303.198 3.51165 303.911 3.83519 303.91 3.90676C303.885 3.92113 302.744 3.9977 303.129 4.12259C303.518 4.24873 304.517 4.25151 304.552 4.26462C304.743 4.34008 302.996 4.40891 302.944 4.45347C302.916 4.476 303.854 4.61443 303.882 4.65422C303.905 4.69416 303.192 4.7813 302.911 4.90734C302.702 5.00099 303.312 5.07279 303.205 5.08747C303.128 5.0972 301.478 5.0956 301.396 5.11206C301.276 5.13641 301.662 5.24833 301.606 5.27632C301.526 5.31657 300.993 5.27617 301.062 5.31758C301.115 5.34844 303.181 5.73425 303.167 5.83731C303.144 6.01308 300.956 5.60865 302.992 6.30229C303.006 6.30685 303.501 6.25755 303.515 6.26183C303.821 6.38945 302.232 6.58577 304.175 6.55145C300.561 6.77311 303.725 6.81568 303.191 7.11165C302.984 7.22541 301.583 7.27232 301.577 7.28939C301.713 7.43371 302.159 7.32178 302.311 7.39255C302.394 7.43209 301.141 7.58468 301.423 7.68376C301.569 7.73482 302.899 7.71664 302.954 7.7266C303.481 7.82055 302.835 7.92173 302.951 7.98845C303.028 8.03319 303.831 8.03674 303.851 8.04479C303.885 8.06155 302.795 8.24231 302.568 8.30585C302.395 8.35474 303.043 8.43133 302.923 8.45264C302.197 8.5801 300.653 8.25504 302.141 8.71053C302.232 8.73846 302.795 8.72718 302.811 8.73275C303.159 8.86187 302.123 8.87303 301.937 8.97873C301.619 9.16087 303.109 9.05932 301.87 9.18741C302.799 9.30653 303.317 9.30155 304.404 9.26835C301.394 9.36098 300.331 9.83249 303.673 9.82062C302.61 9.81327 302.728 10.0794 302.411 10.0841C302.214 10.0867 300.672 9.82207 301.379 10.4157C301.468 10.4899 302.404 10.3957 302.111 10.5475C299.863 10.5087 302.063 10.644 302.065 10.6641C302.036 11.0138 296.544 10.7274 295.601 10.7672C294.506 10.8135 293.533 11.0891 293.295 11.0894C292.511 11.0895 293.161 10.9496 292.986 10.8982C292.809 10.8472 290.582 11.1152 290.471 11.1005C290.039 11.0414 290.477 10.8756 290.432 10.8672C289.898 10.7656 286.908 10.8955 286.07 10.8569C286.096 10.9645 287.777 10.973 286.728 11.1457C285.505 11.3471 285.436 10.873 285.404 10.8522C279.804 10.8566 274.204 10.8611 268.604 10.8656C268.674 11.1179 272.335 10.9277 272.418 10.9609C272.907 11.1575 266.723 11.1539 265.964 11.0648C266.54 11.1193 267.117 11.1738 267.693 11.2283C266.709 11.5183 264.531 11.1415 263.108 11.2695C262.648 11.311 263.531 11.423 263.513 11.4306C262.996 11.5432 262.167 11.4565 262.787 11.3052C261.525 11.4501 261.709 11.2903 260.741 11.2783C260.691 11.2777 261.107 11.3948 260.341 11.4433C259.982 11.4659 258.068 11.4663 257.811 11.5687C257.706 11.6118 258.677 12.0656 258.797 11.675C260.879 11.8654 259.462 11.497 260.271 11.506C260.395 11.508 260.11 11.726 262.147 11.6234C261.759 12.0166 259.413 11.7226 259.011 11.7702C258.182 11.8681 261.599 12.0711 262.226 11.7647C261.933 12.0715 262.468 11.806 263.23 11.8186C264.064 11.8323 263.7 11.9237 264.151 11.9242C265.385 11.9264 264.874 11.7099 265.891 11.9051C264.899 11.3007 267.632 11.8254 268.429 11.9837C267.133 12.0143 265.837 12.045 264.541 12.0757C264.615 12.1074 264.689 12.1392 264.763 12.1709C264.422 12.1664 264.081 12.1619 263.74 12.1574C263.794 12.127 263.849 12.0966 263.904 12.0662C262.144 12.264 261.714 12.0417 261.571 12.0392C259.723 12.0134 257.589 12.0153 255.722 12.0146C255.441 12.0145 255.634 12.2123 253.591 12.0575C252.94 12.0081 253.555 11.8542 252.816 11.8773C251.892 12.2955 251.91 11.962 251.635 11.9614C250.847 11.9615 250.365 12.0651 250.292 12.0662C249.319 12.0824 247.892 12.0651 246.823 12.0805C246.803 12.082 247.359 12.2105 246.665 12.1725C246.42 12.1589 244.232 11.6105 242.319 11.7893C242.816 11.8263 243.314 11.8633 243.812 11.9003C243.226 11.8486 239.126 11.9868 240.129 12.1336C240.743 12.2234 242.244 11.8698 242.408 12.2098C241.044 12.1081 233.509 12.2602 232.922 12.1812C232.841 12.17 233.34 12.0597 233.228 12.0456C233.141 12.0348 231.415 12.0609 231.186 12.0186C231.05 11.9934 231.812 11.9258 231.75 11.8861C231.696 11.8577 229.54 11.8105 229.417 11.9487C229.947 11.8933 231.434 11.9417 230.654 12.0583C230.554 12.0727 230.034 11.9835 229.912 12.0019C228.781 12.1713 232.161 12.1306 232.685 12.132C230.561 12.3082 227.276 12.1005 224.816 12.2154C223.821 12.1003 226.29 12.0393 225.165 11.944C222.831 11.7464 224.544 12.1031 224.471 12.1178C223.891 12.2339 221.917 11.6117 221.916 12.0852C221.07 12.0139 221.344 11.9542 220.15 12.0162C220.307 12.049 220.464 12.0818 220.621 12.1146C219.295 12.3889 216.49 11.6968 216.7 11.6441C217.265 11.5028 218.726 11.7231 218.851 11.7178C219.036 11.71 219.547 11.2295 221.568 11.6591C222.396 11.3368 218.364 11.4416 220.199 11.2219C218.96 11.258 213.863 11.0336 213.129 11.1751C213.041 11.1936 213.449 11.5147 212.19 11.3513C211.592 11.2734 213.034 11.2697 212.76 11.1965C211.918 10.972 200.471 11.1156 198.296 11.1275C198.155 11.1278 198.207 11.0282 198.068 11.0291C197.642 11.0319 196.089 11.1805 195.327 11.1346C196.907 11.3191 193.838 11.3335 193.058 11.3132C191.873 11.2823 191.946 11.1069 191.435 11.0696C189.462 10.9258 186.406 11.3422 184.873 10.9529C184.957 11.3393 182.223 10.7635 180.979 10.7601C180.005 10.7573 178.591 11.013 179.906 11.1688C178.224 11.151 176.454 11.223 174.876 11.2465C174.616 11.2505 174.975 11.1362 174.53 11.1465C174.489 11.1483 174.433 11.2603 174.051 11.2719C170.897 11.3695 172.432 11.1316 171.842 11.0616C171.512 11.0225 171.268 11.003 171.089 10.9966C172.927 10.9747 175.048 10.9307 175.615 10.9275C175.131 10.6803 171.54 10.975 170.489 10.9085C170.452 10.9061 170.579 10.7698 170.542 10.7688C170.541 10.7688 170.541 10.7688 170.54 10.7688C170.146 10.7584 167.635 10.8087 168.152 10.9712C168.291 11.0146 169.446 11.0145 170.817 10.9997C170.446 11.0302 170.723 11.1829 170.657 11.1894C169.864 11.2648 167.919 11.1158 167.23 11.0958C167.072 11.0913 167.083 11.1891 167.057 11.1894C166.43 11.1672 166.687 10.8879 166.044 11.1759C164.908 10.8279 168.173 11.1242 167.943 10.8982C167.766 10.7241 160.514 10.8176 160.536 11.0918C160.511 11.0625 160.411 11.0261 160.206 10.9847C159.753 10.8927 157.734 10.9214 157.386 10.972C157.327 10.9819 157.351 11.248 157.278 11.2505C157.095 11.2566 154.628 11.048 153.707 11.2053C154.204 11.2425 154.702 11.2798 155.2 11.3171C152.195 11.3194 152.659 11.3986 153.66 11.4782C153.71 11.4789 153.759 11.489 153.807 11.4901C154.583 11.5489 155.578 11.6056 155.593 11.6266C155.65 11.7067 150.552 11.7513 151.532 11.5044C151.669 11.4707 154.028 11.5806 152.86 11.4044C152.655 11.3736 151.141 11.4238 151.061 11.4044C150.529 11.2753 153.837 11.1038 153.432 10.9204C152.629 11.095 151.599 11.0031 150.678 11.0481C150.259 11.0685 150.156 11.2019 150.105 11.2045C149.332 11.2393 149.766 11.0994 149.508 11.1029C149.369 11.1053 147.847 11.403 148.135 10.9926C143.119 11.2945 146.747 11.2942 149.824 11.2711C148.852 11.4206 146.946 11.3483 146.09 11.383C145.783 11.3956 145.965 11.5325 145.447 11.5599C144.38 11.6163 139.286 11.459 137.958 11.4219C138.773 11.3735 138.535 11.2243 137.906 11.2346C137.277 11.245 137.805 11.4441 137.683 11.4655C137.551 11.4877 134.599 11.3937 134.108 11.4195C136.33 11.3474 135.829 11.1986 133.943 11.183C134.216 11.1402 134.488 11.0973 134.761 11.0545C133.655 11.1147 131.331 10.8878 130.692 10.9553C130.592 10.9662 130.952 11.0912 130.896 11.0973C130.335 11.1505 128.428 11.0229 128.339 11.0656C128.264 11.1011 129.078 11.206 128.776 11.2576C128.713 11.2685 127.928 11.0994 127.156 11.141C126.869 11.1563 127.042 11.2746 126.97 11.2814C126.368 11.3383 126.723 11.1391 125.624 11.1711C124.818 11.1948 124.218 11.3896 123.105 11.3251C126.76 11.5733 123.687 11.4696 122.159 11.5449C121.914 11.5569 122.124 11.7716 120.66 11.6671C123.775 11.2787 119.772 11.4618 118.953 11.4576C118.908 11.4563 118.893 11.3146 118.491 11.3124C118.457 11.3125 118.506 11.4082 118.133 11.4155C114.593 11.4847 116.856 11.3766 116.184 11.2822C115.897 11.242 114.176 11.3773 113.712 11.3806C113.606 11.3809 113.655 11.2815 113.242 11.2854C112.513 11.2925 111.859 11.3984 111.377 11.4068C111.321 11.4073 111.319 11.2504 110.406 11.3013C110.149 11.3155 109.861 11.3712 110.225 11.4163C111.434 11.5647 113.728 11.3079 115.095 11.456C116.341 11.5909 112.411 11.6036 112.207 11.6044C112.132 11.6049 112.899 11.527 112.12 11.5115C111.454 11.4987 110.237 11.7697 109.244 11.7107C109.169 11.7063 108.376 11.4765 108.412 11.4631C108.446 11.4533 109.663 11.4035 109.486 11.337C109.465 11.3294 108.692 11.3309 108.591 11.2814C108.467 11.2212 108.133 10.6297 107.968 10.6149C107.544 10.5783 107.82 10.7132 107.546 10.7038C106.957 10.684 104.917 10.5091 104.851 10.7141C105.188 10.7263 105.525 10.7384 105.862 10.7506C103.987 10.7717 104.786 10.8589 104.52 10.8974C104.234 10.939 104.315 10.7588 103.683 10.7419C103.545 10.7381 100.9 10.7757 100.948 10.8514C102.411 10.731 101.869 10.9537 101.936 10.9577C102.192 10.9722 102.52 10.8473 102.864 10.8498C105.282 10.8693 102.843 11.0665 103.414 11.1172C103.61 11.1342 104.002 11.0276 104.085 11.0331C104.356 11.0507 104.361 11.1904 104.541 11.1791C104.963 11.1529 104.471 10.9553 104.504 10.945C104.881 10.8213 106.358 10.9752 105.438 11.1902C105.99 11.2677 106.055 11.0064 106.493 11.1108C107.363 11.3177 106.059 11.2645 105.706 11.2989C104.439 11.4228 104.063 11.3225 102.27 11.3568C101.624 11.3689 100.859 11.4958 100.56 11.5028C100.371 11.5072 98.5888 11.0656 98.5364 11.7567C97.8435 11.6899 96.7566 11.2344 96.0429 11.2552C95.4021 11.2742 95.6059 11.5187 95.5461 11.5282C95.4544 11.5431 94.6795 11.5238 94.4174 11.5584C94.1103 11.5992 94.2636 11.6925 93.7763 11.7305C92.5637 11.8249 92.5955 11.5754 92.4708 11.5591C91.0238 11.3717 91.6574 11.7267 91.3364 11.7551C91.0378 11.7813 86.8494 11.6447 85.9678 11.7345C86.3265 11.6845 86.6853 11.6345 87.0441 11.5845C86.402 11.4289 85.7215 11.6828 85.7095 11.4036C85.5792 11.8543 84.254 11.5531 83.8559 11.5647C83.6991 11.5695 83.7114 11.6463 83.515 11.6496C82.748 11.6631 81.0187 11.6019 80.6027 11.6409C78.8035 11.8085 83.4041 12.0874 83.7664 12.1043C83.0414 12.0993 78.9395 12.2002 80.8249 12.4169C81.1164 12.4503 81.6328 12.2486 81.7965 12.2408C82.9044 12.1888 82.0331 12.3696 82.1199 12.3868C82.2676 12.4145 82.9968 12.2398 83.1892 12.2606C83.2535 12.2673 82.84 12.4309 83.8967 12.4344C83.377 12.593 80.4071 12.4638 80.0174 12.501C79.8786 12.5143 80.7486 12.8533 78.207 12.524C78.2364 12.5555 78.2659 12.587 78.2954 12.6185C76.8801 12.6314 75.4649 12.6444 74.0496 12.6573C74.2034 12.5848 74.998 12.4392 73.9973 12.4701C73.4211 12.488 73.8474 12.6495 73.7948 12.6542C73.2777 12.6986 64.1261 12.6449 62.3525 12.6629C61.7492 12.6687 60.0676 12.7985 59.9393 12.801C59.1726 12.8139 56.4575 12.7295 55.9158 12.7478C55.5776 12.7595 55.8991 12.8946 55.597 12.8882C55.3161 12.8822 55.6071 12.7517 55.5237 12.7462C54.8327 12.6989 49.584 12.8701 48.3377 12.747C49.0994 12.7839 52.9007 12.5232 52.8243 12.4312C52.8078 12.4186 51.8839 12.3193 51.6933 12.3677C51.3785 12.2547 50.2974 12.5987 49.7095 12.5312C49.643 12.5235 49.9048 12.3305 48.8554 12.2955C48.494 12.2835 47.5474 12.4339 46.5947 12.2654C45.2155 12.3464 37.9642 12.0961 37.4667 12.3034C37.452 12.3144 38.4731 12.3858 37.7832 12.4709C36.866 12.584 37.6897 12.203 36.6208 12.1701C36.4597 12.1651 33.4858 12.2037 33.3885 12.2273C32.4878 12.4411 35.0864 12.5277 35.05 12.5526C34.9594 12.6152 32.8002 12.653 32.7125 12.6383C32.6289 12.6229 34.3898 12.3396 32.2738 12.4471C32.5162 12.4809 32.7586 12.5148 33.001 12.5486C32.0059 12.6146 31.911 12.4186 31.6699 12.4066C30.9205 12.3687 30.1097 12.6664 28.9088 12.2987C28.5913 12.2011 29.1185 12.0927 29.0787 12.0781C28.6973 11.9467 28.2107 12.2981 27.6371 12.036C27.5939 12.0165 28.9287 11.8595 26.5957 11.8591C26.7563 11.8842 26.9169 11.9093 27.0774 11.9345C26.7485 11.9906 24.3863 12.0239 24.0685 12.0106C23.1402 11.9719 23.9498 11.7915 23.0167 11.8131C23.6151 12.0603 20.7777 12.0925 20.9409 11.8797C20.5446 12.147 18.1342 11.9408 17.0012 11.9345C16.2862 11.9307 14.8279 12.0473 14.6008 12.0337C14.324 12.0169 14.4081 11.8346 13.9085 11.794C13.766 11.7824 12.2785 11.9161 10.9728 11.7274C10.7198 11.691 10.1884 11.3817 10.6587 11.3044C11.4637 11.1722 12.9866 11.4213 12.9672 11.2386C12.9443 11.0431 10.8931 11.1594 10.341 11.1338C7.79214 11.0158 9.264 10.808 9.19844 10.745C9.02846 10.5922 7.63574 10.5969 7.57763 10.5832C7.33678 10.5221 8.32369 10.4011 8.33858 10.3078C8.35657 10.1863 7.01413 9.9671 7.31932 9.92615C7.75618 9.868 8.9899 10.0507 9.06812 10.042C10.0863 9.92414 8.69066 9.64349 8.306 9.5056C8.1894 9.46318 8.65401 9.39347 8.55733 9.38103C7.08154 9.19224 8.24624 9.77546 7.26463 9.73651C6.38885 9.70179 7.51567 9.51736 7.48222 9.50719C7.43898 9.49601 6.39184 9.48596 6.22792 9.4207C6.14713 9.38802 8.86879 9.02928 8.75513 8.86843C7.88674 8.90387 7.01835 8.93932 6.14996 8.97476C6.08188 8.76503 7.33092 8.91942 7.46011 8.89779C7.72018 8.8544 6.99498 8.74827 7.02611 8.68196C7.04281 8.63978 7.89396 8.48929 7.12501 8.42725C6.86074 8.40583 6.30614 8.55288 5.34363 8.40266C8.69329 8.21079 6.37203 8.0929 6.2733 8.01861C6.17658 7.94432 7.77573 7.76948 5.83464 7.8004C5.75048 7.39225 5.87649 7.67138 6.42805 7.59965C7.10373 7.51147 5.5421 7.37707 8.01163 7.47904C7.87114 7.28795 5.8862 7.30147 5.78112 7.28622C5.69038 7.2724 6.13159 7.17841 5.97427 7.14656C4.11346 6.77733 5.39155 6.94594 4.85261 6.71015C4.80468 6.68908 3.04592 6.60166 4.38487 6.56732C6.82422 6.50489 7.84372 6.77568 8.25364 6.19676C6.44933 5.94529 4.26315 6.31897 3.71467 6.32531C2.87514 6.33443 3.74481 6.21636 3.64137 6.18327C3.60543 6.17258 2.88198 6.18233 2.87226 6.17296C2.3564 5.73141 6.0929 6.16563 7.26929 6.08885C6.95397 6.02272 6.63865 5.9566 6.32333 5.89048C6.75112 5.88783 7.17892 5.88519 7.60672 5.88254C5.5687 5.74962 7.53486 5.83221 8.04304 5.47469C8.15713 5.39435 6.81823 5.53212 8.34556 5.30885C7.21907 5.25731 7.57839 5.18426 6.55836 5.28504C6.58469 5.14174 8.87967 4.98009 9.78487 4.90655C6.58705 4.74551 8.41065 5.27115 5.64615 4.99304C5.1335 5.17049 6.45304 5.13594 6.34544 5.16523C5.95939 5.27054 5.05439 5.10332 3.9625 5.47231C3.78472 5.53289 4.537 5.71936 3.42378 5.71035C3.30066 5.70908 2.59132 5.54972 2.60116 5.53817C2.6952 5.41336 3.39713 5.46013 3.42611 5.40803C3.4533 5.35872 2.67018 5.38838 2.66748 5.37471C2.64342 5.21835 3.32089 5.31495 3.22249 5.266C3.01 5.15954 0.193114 4.82308 3.86942 4.92163C0.815856 5.0984 3.47847 5.09427 4.66761 5.02637C4.97086 5.00934 5.04766 4.91595 5.47976 4.88354C6.03559 4.84156 6.68614 4.8864 6.97375 4.86926C7.28308 4.85036 5.5255 4.62961 8.06748 4.69548C6.77379 4.47589 4.48864 4.71001 3.21784 4.55583C0.65394 4.24427 5.0055 4.17738 5.45882 4.14718C5.57959 4.139 5.17469 4.01288 5.2552 4.00515C5.38685 3.9933 7.85654 4.0516 8.10006 3.94722C8.34292 3.84294 7.19546 3.95203 7.11919 3.84328C7.06749 3.77006 10.0468 3.6402 8.43399 3.59016C7.32238 3.55585 5.27338 3.85012 4.92824 3.53382C6.56302 3.50763 8.1978 3.48145 9.83257 3.45526C8.93781 3.33492 8.04304 3.21457 7.14828 3.09423C8.98314 3.05606 10.5694 3.19193 12.3121 3.01964C8.12445 2.63401 13.6718 2.71188 13.7328 2.66495C13.7532 2.63688 12.1049 2.32387 11.8397 2.26662C13.3002 2.14621 17.7384 2.08736 15.1418 1.70086C15.6131 1.78813 16.7544 1.57271 16.7394 1.55645C16.5944 1.3857 14.1052 1.49642 14.5112 1.34221C14.9816 1.16324 15.6409 1.40603 16.3647 1.38664C20.0788 1.28556 19.0598 0.39418 22.784 0.535231C22.7099 0.503491 22.6358 0.471751 22.5617 0.440012C26.6097 0.490531 30.6576 0.541049 34.7056 0.591568C36.2894 0.319357 40.5044 0.153599 42.5746 0.183716C42.9915 0.189581 45.0382 0.332443 45.1926 0.35749C45.4786 0.405491 43.906 0.423806 44.6167 0.513806C44.7667 0.532279 48.2317 0.592307 47.9839 0.440012C47.5956 0.422354 46.3805 0.498908 46.1816 0.463023C44.7846 0.206887 55.4669 0.411512 55.9961 0.308293C55.7595 0.258832 55.5229 0.209372 55.2863 0.159911C55.9604 0.184244 56.6345 0.208578 57.3086 0.232912ZM26.3339 12.4645C25.9294 12.6173 24.9155 12.5026 24.3163 12.5455C23.4886 12.6055 22.0816 13.194 22.6874 12.6042C23.9029 12.5576 25.1184 12.5111 26.3339 12.4645ZM44.0989 12.6922C43.2838 12.6102 43.916 12.2808 44.5841 12.4177C44.6582 12.4333 45.2017 12.8027 44.0989 12.6922ZM35.5538 12.5359C35.5881 12.5316 36.2925 12.5403 36.3171 12.5455C36.9488 12.6777 34.8251 12.6507 35.5538 12.5359ZM76.8328 12.3669C75.9347 12.3811 76.5851 12.6806 77.1435 12.5574C77.1786 12.5495 76.8919 12.3662 76.8328 12.3669ZM76.194 12.359C75.4965 12.0908 74.0917 12.6343 75.2085 12.5796C75.3168 12.574 76.2263 12.372 76.194 12.359ZM41.1935 12.5613C41.2852 12.4585 42.126 12.5082 42.485 12.5328C42.4753 12.6266 41.5456 12.5498 41.1935 12.5613ZM62.5108 12.5328C62.5464 12.452 59.6241 12.4564 59.4251 12.5629C59.8863 12.5177 62.4772 12.6054 62.5108 12.5328ZM70.0051 12.4193C69.9311 12.4053 68.9215 12.4266 68.951 12.4978C69.4438 12.5914 70.3387 12.4825 70.0051 12.4193ZM84.9008 12.424C84.9556 12.4061 84.1996 11.9525 85.9911 12.2511C86.2541 12.2948 85.3147 12.4133 85.4081 12.4296C85.6039 12.4613 85.7586 12.4761 85.8828 12.4788C85.0485 12.5164 84.1818 12.5341 84.098 12.5066C83.7043 12.3766 84.8765 12.4315 84.9008 12.424ZM92.721 12.086C92.8929 12.012 93.9907 12.0516 94.2406 12.0821C94.2835 12.0878 94.0965 12.2823 94.5908 12.2677C94.9877 12.2557 94.3948 12.0565 95.1679 12.0884C95.9492 12.1204 94.9054 12.2624 94.9736 12.2725C95.0651 12.2858 96.2736 12.1963 96.236 12.3122C96.208 12.398 94.9133 12.34 94.5931 12.3582C94.1832 12.3816 94.6803 12.5246 93.9951 12.4939C93.5645 12.4747 93.8032 12.2233 93.7123 12.2106C93.6361 12.2004 92.1311 12.345 92.7233 12.0868C92.7225 12.0866 92.7218 12.0863 92.721 12.086ZM86.1086 12.4677C86.0458 12.4762 85.972 12.4807 85.8828 12.4788C85.9585 12.4754 86.034 12.4714 86.1086 12.4677ZM28.6889 12.3542C29.1126 12.4318 27.855 12.5312 27.3788 12.4296C27.3705 12.3477 28.6215 12.3422 28.6889 12.3542ZM86.8823 12.263C88.1217 12.3259 87.2101 12.4126 86.1086 12.4677C86.4583 12.4204 86.4662 12.2419 86.8823 12.263ZM51.6933 12.3677C51.7456 12.3865 51.7787 12.4157 51.7829 12.4637C51.6455 12.4112 51.6332 12.383 51.6933 12.3677ZM54.5847 12.4534C55.5759 12.3071 53.562 12.313 53.5748 12.4177C53.5808 12.4572 54.545 12.4592 54.5847 12.4534ZM77.9847 12.3812C77.8941 12.3669 79.3026 11.9251 77.2575 12.2566C78.3491 12.3087 77.1974 12.3568 77.2144 12.3955C77.259 12.5067 79.0925 12.3998 79.4985 12.4479C79.8164 12.2489 78.2841 12.4284 77.987 12.3812C77.9863 12.3812 77.9855 12.3812 77.9847 12.3812ZM106.815 12.1931C106.567 12.3097 105.778 12.2722 105.246 12.2654C105.495 12.1488 106.283 12.1863 106.815 12.1931ZM245.99 12.2098C242.345 12.3176 241.873 11.8428 245.208 12.0305C245.273 12.0344 246.211 12.1617 245.99 12.2098ZM214.714 12.0868C214.37 11.8799 215.507 11.8466 216.253 11.9321C216.422 11.9513 217.046 12.1609 216.333 12.2019C216.356 11.9511 215.253 11.8553 214.714 12.0868ZM87.5828 12.1305C87.9437 11.9925 89.0546 12.0907 89.6399 12.1114C89.2827 12.225 88.1003 12.1736 87.5828 12.1305ZM234.015 11.9622C233.63 11.9466 233.371 12.1266 233.437 12.1416C233.734 12.2103 234.452 12.0647 234.015 11.9622ZM83.9967 12.109C83.9459 12.0266 85.4174 11.9472 85.5198 12.1511C85.2053 12.1363 84.0332 12.1608 83.9967 12.109ZM105.812 12.1313C105.584 12.0893 106.767 12.0143 107.124 12.0559C107.096 12.1436 105.962 12.1585 105.812 12.1313ZM227.83 12.0233C227.486 12.0077 226.627 12.0029 226.532 12.0757C226.414 12.1667 227.674 12.1357 227.83 12.0233ZM291.832 11.8662C291.875 11.8989 290.545 12.1345 289.953 12.0749C288.83 11.9608 291.785 11.8431 291.832 11.8662ZM237.651 11.8694C238.735 12.0406 237.531 11.8748 237.578 12.0551C238.308 12.0616 240.124 12.0705 238.876 11.8932C238.633 11.8589 237.991 11.8811 237.651 11.8694ZM236.65 11.8091C236.534 11.8675 235.752 12.0516 236.428 12.0384C236.74 12.032 237.244 11.8275 236.65 11.8091ZM283.586 11.9464C282.614 11.7868 287.071 11.8724 287.199 11.9003C287.267 11.9151 287.311 11.929 287.336 11.9408C287.5 11.8902 288.342 11.8811 288.439 12.0091C288.187 11.9985 287.498 12.0097 287.418 11.9956C287.383 11.9895 287.357 11.9839 287.34 11.9781C287.043 12.0892 283.772 11.9766 283.586 11.9464ZM276.201 11.7821C277.314 11.5467 277.511 11.947 277.415 11.9599C276.204 12.1237 276.993 11.8285 276.956 11.8147C276.872 11.7916 276.011 11.9286 276.205 11.7821C276.203 11.7821 276.202 11.7821 276.201 11.7821ZM282.072 11.8805C282.118 11.8753 283.052 11.8877 283.09 11.894C283.856 12.0285 281.213 11.9941 282.072 11.8805ZM98.6155 11.8059C99.2842 11.8457 98.6282 11.993 98.1838 11.94C98.1473 11.9348 98.0256 11.7708 98.6155 11.8059ZM236.116 11.8488C235.961 11.8209 231.995 11.716 232.233 11.9384C232.57 11.9122 237.078 12.0267 236.116 11.8488ZM206.477 11.7948C207.176 11.7965 206.414 12.0063 206.041 11.9281C205.902 11.8991 206.301 11.7945 206.477 11.7948ZM82.0129 11.9186C81.2867 12.0338 81.4369 11.6472 82.0664 11.7797C82.0911 11.7849 82.0414 11.9141 82.0129 11.9186ZM212.064 11.9154C209.652 12.0426 210.224 11.3775 213.359 11.602C213.261 11.6316 213.163 11.6612 213.065 11.6909C216.684 11.7906 213.312 11.7377 212.426 11.775C212.089 11.7891 212.372 11.9001 212.067 11.9162C212.066 11.916 212.065 11.9157 212.064 11.9154ZM202.799 11.7821C200.476 11.3101 204.911 11.6175 206.183 11.556C204.95 11.7509 203.344 11.7214 205.528 11.921C202.335 11.9596 203.664 11.7716 203.537 11.7559C203.386 11.7384 202.898 11.8024 202.799 11.7821ZM208.926 11.7789C209.06 11.7652 210.072 11.8613 210.436 11.8456C209.927 12.0069 208.035 11.8726 208.926 11.7789ZM268.459 11.8916C268.543 11.7653 268.751 11.6722 269.549 11.7194C269.302 11.7829 268.792 11.8375 268.459 11.8916ZM25.566 11.7996C25.0161 11.7905 23.9212 11.7429 24.257 11.8757C24.2938 11.8871 25.5643 11.8741 25.566 11.7996ZM224.597 11.7464C224.48 11.7309 221.456 11.7204 222.5 11.8599C222.815 11.9019 225.567 11.8841 224.597 11.7464ZM240.258 11.7623C240.005 11.761 238.977 11.7848 238.955 11.8147C238.885 11.918 240.147 11.8612 240.258 11.7623ZM22.7921 11.6702C22.7197 11.6571 21.0402 11.6803 21.2248 11.7416C21.5753 11.8576 23.0403 11.7154 22.7921 11.6702ZM101.048 11.51C101.189 11.5053 101.375 11.6425 101.423 11.6441C101.537 11.646 104.107 11.5932 103.125 11.7694C102.962 11.799 99.264 11.7313 98.783 11.7139C98.5971 11.5255 100.177 11.7047 100.561 11.6853C100.629 11.6816 100.672 11.524 101.047 11.5107C101.048 11.5105 101.048 11.5102 101.048 11.51ZM272.618 11.7583C272.732 11.6385 275.753 11.5592 275.718 11.7044C274.685 11.7223 273.652 11.7403 272.618 11.7583ZM271.084 11.7385C270.439 11.6537 271.949 11.6257 272.394 11.6631C272.399 11.7437 271.178 11.7509 271.084 11.7385ZM234.528 11.3148C234.224 11.344 235.158 11.5188 234.949 11.5528C234.815 11.574 234.137 11.5084 233.92 11.5631C233.859 11.5805 234.551 11.7448 234.751 11.7377C235.035 11.7282 234.76 11.5989 235.07 11.598C236.1 11.5952 237.013 11.6875 237.979 11.6853C238.066 11.6849 237.39 11.5936 238.133 11.5949C238.248 11.5949 238.939 11.7309 239.829 11.7107C241.794 11.2895 243.237 11.7031 245.73 11.5512C245.636 11.5116 243.771 11.4052 243.661 11.4012C241.577 11.332 237.843 11.3244 235.66 11.3235C235.1 11.3231 235.372 11.4123 235.13 11.4155C234.94 11.4179 235.166 11.2529 234.528 11.3148ZM25.858 11.7083C25.596 11.5435 24.6766 11.6478 24.0895 11.6393C24.2961 11.788 25.2842 11.6718 25.858 11.7083ZM257.519 11.6107C257.225 11.6171 256.312 11.5674 256.237 11.6171C256.14 11.6819 257.457 11.7228 257.519 11.6107ZM115.539 11.5568C115.568 11.5523 116.276 11.5611 116.302 11.5663C116.935 11.6986 114.811 11.6715 115.539 11.5568ZM132.477 11.5885C133.014 11.5682 133.555 11.5166 133.736 11.6504C133.394 11.6299 132.414 11.6817 132.477 11.5885ZM155.844 11.5845C155.733 11.4094 157.35 11.5228 157.655 11.5385C157.542 11.6164 155.926 11.7108 155.844 11.5845ZM268.342 11.3417C269.33 11.3521 269.122 11.0868 269.749 11.2068C269.852 11.2271 270.182 11.7797 269.096 11.5726C268.901 11.5354 269.666 11.4041 268.342 11.3417ZM213.87 11.6075C214.121 11.4917 214.907 11.5261 215.437 11.5353C215.318 11.6214 214.248 11.5993 213.87 11.6075ZM19.7587 11.5377C19.2954 11.3741 17.1544 11.4955 17.6842 11.6036C17.7595 11.6177 19.4584 11.5315 19.7587 11.5377ZM90.0949 11.602C90.9758 11.4732 89.1512 11.4333 88.5753 11.5591C88.836 11.5509 90.0355 11.6105 90.0949 11.602ZM150.231 11.4893C150.274 11.484 151.208 11.4965 151.249 11.5028C152.015 11.6373 149.372 11.6029 150.231 11.4893ZM126.907 11.3759C127.244 11.2698 129.456 11.3554 129.952 11.4615C129.475 11.6166 126.489 11.5083 126.907 11.3759ZM264.277 11.4171C264.982 11.4116 265.651 11.4443 266.298 11.4901C266.162 11.5794 264.352 11.4838 264.277 11.4171ZM153.66 11.4782C153.71 11.4789 153.759 11.489 153.807 11.4901C153.757 11.4863 153.708 11.482 153.66 11.4782ZM248.501 11.3544C247.91 11.3192 248.033 11.4827 248.069 11.4877C248.513 11.5407 249.169 11.3942 248.501 11.3544ZM25.1832 11.4655C24.9784 11.3179 23.9849 11.4324 23.4134 11.3973C23.5792 11.5138 24.7228 11.481 25.1832 11.4655ZM200.311 11.4798C199.569 11.3198 202.589 11.1339 203.225 11.237C203.272 11.3359 200.42 11.5017 200.311 11.4798ZM87.3594 11.3806C87.3001 11.265 86.0324 11.4045 86.3017 11.4592C86.4723 11.4939 87.3948 11.4525 87.3594 11.3806ZM204.743 11.3044C205.027 11.2691 205.688 11.3833 205.455 11.4528C205.156 11.542 204.67 11.3145 204.743 11.3044ZM230.196 11.2116C230.072 11.1939 228.404 11.3126 229.093 11.4306C229.571 11.5126 229.647 11.3454 229.759 11.3449C229.885 11.3454 232.563 11.55 230.196 11.2116ZM183.4 11.379C184.03 11.3346 184.791 11.3862 185.449 11.383C185.181 11.4545 183.668 11.474 183.4 11.379ZM92.2486 11.3497C92.0957 11.3029 87.9319 11.2747 90.2973 11.4187C90.4353 11.4268 92.7128 11.4913 92.2486 11.3497ZM268.342 11.3417C268.218 11.3404 268.074 11.3349 267.907 11.3235C268.073 11.328 268.217 11.3358 268.342 11.3417ZM257.121 11.3243C257.349 11.2401 256.203 11.2176 255.865 11.2624C255.761 11.3652 257.09 11.336 257.121 11.3243ZM185.499 11.2656C185.879 11.2174 186.568 11.2688 187.038 11.2632C186.958 11.3414 185.664 11.3451 185.499 11.2656ZM158.849 11.1775C159.602 11.224 160.53 11.2026 160.544 11.1069C160.559 11.1218 160.596 11.1377 160.657 11.1537C160.718 11.1695 161.525 11.125 161.876 11.1576C163.976 11.3518 153.767 11.2717 159.684 11.0013C159.406 11.06 159.127 11.1188 158.849 11.1775ZM123.913 11.1505C123.485 11.034 122.288 11.18 122.598 11.2259C122.815 11.2573 124.341 11.2678 123.913 11.1505ZM140.373 11.0815C140.245 11.0607 139.075 11.1423 139.045 11.2037C139.717 11.2683 140.955 11.1781 140.373 11.0815ZM120.625 11.014C120.357 10.9964 120.014 11.1844 120.046 11.1926C120.318 11.2612 121.076 11.1187 120.625 11.014ZM266.296 10.8355C265.896 10.7817 264.623 10.9177 264.346 11.0418C264.294 11.0178 264.155 10.9865 263.9 10.949C263.901 10.949 263.902 10.949 263.902 10.949C263.558 10.8988 253.266 10.8441 260.17 11.0831C260.386 11.0907 260.091 10.9793 260.97 10.9989C261.028 11.0004 261.057 11.0913 261.237 11.0958C261.65 11.1054 263.85 11.1626 264.292 11.0894C264.296 11.1063 264.325 11.1223 264.385 11.137C264.928 11.2682 266.606 10.877 266.296 10.8355ZM142.692 11.0648C142.456 11.0311 141.711 11.0631 141.634 11.1434C142.003 11.1827 143.238 11.1434 142.692 11.0648ZM92.1194 11.0204C91.6399 10.9544 90.4245 11.0778 90.7918 11.1434C91.0171 11.1837 92.6725 11.0962 92.1194 11.0204ZM135.229 11.1077C137.978 11.2025 135.885 11.1 136.306 10.9823C135.947 11.0241 135.588 11.0659 135.229 11.1077ZM279.023 11.1394C278.584 11.1123 279.099 10.8801 279.582 11.0061C279.734 11.0461 279.268 11.1541 279.023 11.1394ZM298.823 11.0672C298.448 10.8613 300.276 10.9823 299.564 11.1235C299.531 11.1283 298.849 11.075 298.823 11.0672ZM284.987 10.9831C284.689 11.1233 284.496 11.1399 283.657 11.1053C284.898 11.0658 283.747 10.9418 284.987 10.9831ZM160.536 11.0918C160.541 11.0974 160.545 11.1016 160.544 11.1069C160.538 11.1017 160.536 11.0968 160.536 11.0918ZM118.04 11.0505C117.695 10.9317 116.731 10.9405 117.018 11.06C117.046 11.0711 117.899 11.1383 118.04 11.0505ZM264.346 11.0418C264.391 11.0631 264.368 11.0768 264.292 11.0894C264.289 11.0735 264.308 11.0585 264.346 11.0418ZM123.22 10.9537C123.185 11.0423 124.654 11.0768 124.713 11.0664C125.555 10.9127 123.826 10.9484 123.22 10.9537ZM82.4108 10.8958C82.3351 10.905 82.8235 11.1338 83.1229 11.0442C83.3547 10.9746 82.6945 10.8606 82.4108 10.8958ZM287.834 10.9259C288.299 10.9261 288.954 10.926 289.074 11.0347C288.763 11.018 287.825 11.0057 287.834 10.9259ZM298.107 10.918C297.557 11.0458 296.302 11.0454 295.501 11.0243C295.486 10.8562 297.591 10.9575 298.107 10.918ZM267.557 10.8982C267.519 10.8913 266.353 10.8412 266.512 10.9537C266.745 11.1188 267.886 10.9594 267.557 10.8982ZM84.6751 11.0172C85.1965 10.9397 83.9965 10.7015 83.4464 10.8855C83.1639 10.9797 84.5872 11.0302 84.6751 11.0172ZM115.027 10.895C114.339 10.9601 116.045 11.0762 116.283 10.9585C115.966 10.949 115.272 10.8719 115.027 10.895ZM138.439 10.776C136.271 10.4365 137.452 11.0558 137.836 11.0013C137.89 10.9936 138.492 10.784 138.439 10.776ZM14.3785 10.8593C14.0716 10.9065 15.216 11.0773 15.3641 10.9648C15.4556 10.8944 14.5748 10.8292 14.3785 10.8593ZM171.089 10.9966C170.997 10.9977 170.907 10.9988 170.817 10.9997C170.884 10.9942 170.973 10.9924 171.089 10.9966ZM108.781 10.4403C110.308 10.9196 110.147 10.5502 110.28 10.5522C110.567 10.5574 111.233 10.687 111.773 10.6657C111.154 10.7196 110.536 10.7736 109.917 10.8276C110.406 10.8622 114.651 11.0386 114.74 10.9609C114.867 10.8502 113.531 10.8849 113.493 10.8752C113.436 10.8613 113.228 10.5536 113.104 10.5419C112.9 10.5232 109.35 10.5168 108.781 10.4403ZM133.905 10.8291C134.253 10.8657 134.352 10.9876 134.514 10.9585C134.569 10.9485 134.578 10.8322 134.767 10.8022C134.479 10.8112 134.192 10.8201 133.905 10.8291ZM106.048 10.8712C105.616 10.7291 107.553 10.7831 107.615 10.799C107.947 10.8953 106.401 10.9873 106.048 10.8712ZM122.487 10.8506C122.416 10.8423 120.928 10.7979 120.94 10.8767C121.334 10.9368 123.323 10.9544 122.487 10.8506ZM134.999 10.7942C135.522 10.8078 136.51 10.9249 136.397 10.7498C136.396 10.7498 136.395 10.7498 136.395 10.7498C135.929 10.7646 135.464 10.7794 134.999 10.7942ZM86.46 10.6474C85.4914 10.3686 85.9502 10.7209 86.8079 10.8109C87.0676 10.6857 86.6187 10.6928 86.46 10.6474ZM83.3603 10.4395C83.0908 10.3894 80.314 10.4443 80.7377 10.5919C80.8883 10.6445 82.485 10.5119 82.5586 10.5221C82.6701 10.5372 82.1608 10.7004 83.0124 10.6681C82.9626 10.6128 83.4526 10.4563 83.3603 10.4395ZM85.6583 10.4689C84.6958 10.2568 84.4795 10.648 85.2033 10.649C85.4862 10.6497 85.7956 10.4995 85.6583 10.4689ZM89.5899 10.5022C89.2435 10.4651 88.3211 10.411 87.6852 10.5411C88.5361 10.5522 89.387 10.5633 90.238 10.5744C90.3361 10.5007 89.8929 10.5348 89.5876 10.5022C89.5883 10.5022 89.5891 10.5022 89.5899 10.5022ZM303.891 9.91584C303.126 9.80492 304.888 9.76242 304.963 9.78967C305.184 9.88013 304.233 9.96537 303.891 9.91584ZM8.40491 7.30606C8.19241 7.26184 8.05349 7.11637 7.58577 7.19259C8.05623 7.29997 8.52669 7.40736 8.99715 7.51474C9.36275 7.26869 8.63716 7.35482 8.40491 7.30606ZM6.6084 6.40704C6.67486 6.40108 6.31183 6.02272 7.17039 6.27532C7.75048 6.44587 4.59593 6.61209 4.0265 6.44433C4.65568 6.36637 6.03633 6.45561 6.6084 6.40704ZM1.08274 4.76928C1.04636 4.73911 2.24485 4.69485 2.38358 4.71611C3.11198 4.82824 1.27952 4.93093 1.08274 4.76928ZM4.90614 4.84149C4.34407 4.76801 5.58922 4.72065 5.9603 4.76293C5.9963 4.83335 4.99297 4.85219 4.90614 4.84149ZM296.146 4.43601C295.538 4.17887 294.994 4.73243 295.93 4.6209C295.975 4.61565 296.172 4.44861 296.146 4.43601ZM2.25442 4.38761C2.81649 4.46109 1.57134 4.50845 1.20025 4.46617C1.16574 4.39582 2.16884 4.37687 2.25442 4.38761ZM295.718 3.82344C294.911 3.6384 295.195 4.25943 295.296 4.28446C295.712 4.38329 297.137 4.13954 297.429 4.07894C295.295 4.17214 296.099 3.91064 295.718 3.82344ZM291.993 4.19638C291.243 4.26263 293.158 4.38934 293.524 4.21622C293.151 4.2245 292.206 4.17723 291.993 4.19638ZM287.444 3.99721C287.041 3.97497 285.843 3.92172 285.642 4.01943C286.082 4.00174 287.274 4.09776 287.444 3.99721ZM286.532 3.70442C285.902 3.57164 285.751 3.9585 286.477 3.84328C286.506 3.83882 286.555 3.7118 286.532 3.70442ZM282.991 3.56476C282.578 3.41092 282.107 3.78557 282.776 3.79567C282.975 3.79798 283.035 3.5824 282.991 3.56476ZM294.707 3.15532C294.116 3.08926 293.353 3.35756 294.616 3.38702C294.173 3.42802 293.729 3.46902 293.285 3.51001C294.94 3.6604 294.819 3.28833 295.294 3.30371C295.957 3.32557 295.905 3.6326 295.772 3.72902C296.316 3.54091 298.629 3.5379 299.965 3.50208C298.791 3.42313 296.884 3.28628 295.725 3.23626C295.394 3.22178 295.073 3.30598 294.791 3.29657C294.339 3.28102 294.74 3.15977 294.71 3.15532C294.709 3.15532 294.708 3.15532 294.707 3.15532ZM278.337 3.55921C277.123 3.38493 277.891 3.7612 278.577 3.6941C278.606 3.68894 278.367 3.56347 278.337 3.55921ZM0.644081 3.2442C2.26658 3.40147 1.08723 3.60992 4.48144 3.29339C3.05545 3.51747 4.40258 3.45454 4.12424 3.54493C3.90094 3.61644 3.06427 3.55721 3.55061 3.70124C2.91135 3.54448 0.136008 3.58784 0.012278 3.56238C0.0134416 3.56238 0.0146051 3.56238 0.0157687 3.56238C-0.0585447 3.5473 0.126344 3.19418 0.644081 3.2442ZM287.439 3.01329C287.034 2.55674 286.875 3.28138 286.078 2.903C285.018 3.45247 289.007 2.90308 289.49 3.36719C285.158 3.31326 292.352 3.82706 289.328 3.13231C291.819 3.38447 290.144 3.04627 290.529 2.95775C290.94 2.86345 292.349 2.96593 292.278 2.79588C292.277 2.79588 292.276 2.79588 292.275 2.79588C291.414 2.80778 290.552 2.81968 289.69 2.83158C290.534 3.19841 288.772 3.08842 288.175 2.78953C287.93 2.86412 287.684 2.9387 287.439 3.01329ZM292.316 3.35766C292.231 3.34926 290.357 3.40068 290.478 3.47431C290.728 3.52127 293.388 3.46496 292.316 3.35766ZM300.566 3.27752C299.893 3.27663 298.852 3.20506 298.485 3.34338C299.158 3.34431 300.199 3.41592 300.566 3.27752ZM265.91 3.25134C265.052 3.36484 267.693 3.39847 266.929 3.26403C266.891 3.2577 265.952 3.24604 265.91 3.25134ZM285.487 3.08232C284.615 2.9428 285.027 3.3869 285.673 3.27117C285.711 3.26435 285.528 3.08869 285.487 3.08232ZM1.95888 3.19024C2.01723 3.08143 4.37133 3.15786 4.78862 3.15691C4.55153 3.25805 1.89195 3.31497 1.95888 3.19024ZM301.75 2.87046C300.411 2.47922 298.594 2.93112 298.394 2.92125C298.196 2.91118 298.507 2.74016 298.462 2.73557C298.359 2.72598 296.249 2.74033 296.146 2.75223C296.073 2.76152 296.455 3.00185 296.02 3.07756C296.869 2.941 300.727 3.02643 300.927 2.9998C301.083 2.97853 299.913 2.72615 301.748 2.87046C301.749 2.87046 301.749 2.87046 301.75 2.87046ZM297.896 2.86888C298.424 2.96962 296.945 2.98223 296.587 2.94505C295.793 2.86186 297.829 2.85694 297.896 2.86888ZM294.341 2.77604C294.172 2.75344 292.648 2.73292 292.519 2.84507C293.24 2.99056 294.724 2.82869 294.341 2.77604ZM277.386 2.79111C276.99 2.80548 275.902 2.7193 275.839 2.8173C276.235 2.80301 277.323 2.88912 277.386 2.79111ZM9.99081 2.33486C9.33338 2.25285 10.8566 2.21935 11.301 2.25868C11.3251 2.32406 10.0468 2.3419 9.99081 2.33486ZM285.34 2.14522C285.105 2.11541 280.325 2.18978 279.654 2.23567C280.31 2.30979 285.048 2.31549 285.263 2.27931C285.325 2.26849 285.369 2.14991 285.34 2.14522ZM295.678 2.09999C296.116 1.95567 296.402 2.12876 296.457 2.13093C296.999 2.15302 298.123 2.12048 297.877 2.25948C296.92 2.2034 294.805 2.38659 295.678 2.09999ZM277.046 2.13807C275.423 2.19163 278.54 2.34368 278.131 2.19283C278.105 2.1837 277.214 2.13245 277.046 2.13807ZM285.874 2.10316C286.232 1.98654 291.013 2.08712 291.781 2.08729C291.093 2.30238 290.539 2.13901 289.616 2.14998C289.366 2.15319 289.433 2.24267 289.406 2.24282C288.975 2.24696 289.298 2.14361 289.031 2.14204C288.863 2.14133 285.37 2.26747 285.874 2.10316ZM295.928 2.00001C296.195 1.91728 299.181 1.88201 299.301 1.904C300.199 2.06751 296.16 2.02881 295.928 2.00001ZM285.435 1.91193C285.949 1.66195 288.324 1.82936 286.699 1.95399C286.543 1.96532 285.886 1.85696 285.435 1.91193ZM277.219 1.90003C277.139 1.89268 275.447 1.84271 275.417 1.92225C275.661 1.95315 278.128 1.98089 277.219 1.90003ZM278.096 1.63104C278.056 1.63294 278.452 1.78613 277.659 1.76672C277.593 1.7649 277.469 1.59254 276.472 1.65563C276.27 1.66863 275.956 1.78265 275.979 1.78973C277.017 2.06022 280.145 1.54217 278.096 1.63104ZM295.982 1.86035C295.822 1.7876 296.21 1.57168 296.56 1.68103C296.71 1.72824 296.43 1.85783 295.982 1.86035ZM271.853 1.8302C272.837 1.69925 269.748 1.67449 269.591 1.708C269.69 1.78958 271.755 1.84299 271.853 1.8302ZM11.5302 1.32396C11.5294 1.32396 11.5286 1.32396 11.5279 1.32396C12.3554 1.35363 11.8428 1.46257 11.8816 1.46599C13.6443 1.626 13.1767 1.37926 13.4524 1.35014C14.0434 1.28717 13.9482 1.58722 14.9452 1.46282C13.2972 1.64653 14.7973 1.56951 14.8439 1.67626C15.0286 2.1119 12.6497 1.47228 11.828 1.56359C11.7136 1.57623 12.5589 1.71527 12.2655 1.75482C11.3118 1.88298 8.35478 1.21048 11.5302 1.32396ZM296.829 1.66198C297.213 1.53402 300.125 1.65813 299.353 1.76355C299.229 1.78045 296.265 1.84849 296.829 1.66198ZM160.8 1.47313C161.5 1.36239 159.878 1.23221 159.577 1.3184C159.428 1.36134 160.492 1.52173 160.8 1.47313ZM149.427 0.99942C148.596 1.0219 147.719 1.4837 148.754 1.41203C148.864 1.4042 149.523 1.06348 149.427 0.99942ZM204.035 1.23667C203.166 1.07164 203.218 1.37827 203.856 1.37395C204.081 1.37247 204.062 1.2419 204.035 1.23667ZM170.892 1.27635C170.805 1.26564 169.802 1.28522 169.838 1.3557C170.209 1.39798 171.454 1.34982 170.892 1.27635ZM204.31 1.19303C203.796 1.24829 204.682 1.47007 205.311 1.25334C204.991 1.27111 204.363 1.18738 204.31 1.19303ZM283.641 1.23429C283.21 1.3602 281.99 1.32216 281.289 1.34379C281.214 1.18067 283.14 1.26387 283.641 1.23429ZM152.958 1.1851C152.17 1.30006 153.857 1.39419 153.702 1.24223C153.681 1.23397 152.989 1.18019 152.958 1.1851ZM232.05 1.17637C231.478 1.27367 233.295 1.40453 232.795 1.2335C232.77 1.22653 232.082 1.17096 232.05 1.17637ZM239.985 1.23271C239.551 1.19988 237.699 1.20998 238.42 1.30491C238.532 1.3195 239.952 1.32183 239.985 1.23271ZM13.5012 1.23271C13.2673 1.06514 14.6251 1.10503 14.8195 1.13431C14.8959 1.14649 13.8063 1.45072 13.5012 1.23271ZM198.395 1.21049C197.946 1.23145 196.78 1.19161 196.575 1.27952C197.125 1.26132 198.543 1.3856 198.395 1.21049ZM156.547 1.1843C155.862 1.00222 154.69 1.02019 154.98 1.2581C156.274 1.24216 154.82 1.04426 156.547 1.1843ZM207.204 0.99704C206.844 0.98315 206.568 1.21163 206.608 1.22239C206.999 1.3248 207.562 1.08593 207.204 0.99704ZM180.167 1.1851C180.146 1.08746 178.991 1.13177 179.145 1.19462C179.196 1.21572 180.184 1.26411 180.167 1.1851ZM268.515 1.17875C267.985 1.08963 269.602 1.0025 270.08 1.10654C270.312 1.25646 268.582 1.18899 268.515 1.17875ZM217.196 1.05417C217.249 0.90927 215.444 0.991195 216.155 1.1113C216.333 1.14135 217.177 1.10262 217.196 1.05417ZM234.478 0.880398C233.267 1.05319 238.351 1.17587 237.015 0.96054C236.92 0.945197 234.583 0.865805 234.478 0.880398ZM242.782 0.988312C242.573 0.969272 242.677 0.482367 243.542 0.670123C243.655 0.694473 243.124 0.823186 243.217 0.852625C243.272 0.869403 245.151 0.937786 245.238 0.926419C245.331 0.913512 245.222 0.757455 245.316 0.73995C245.422 0.720387 246.58 0.857475 247.186 0.858974C248.328 0.861544 248.451 0.731652 248.545 0.731222C248.818 0.730361 249.276 0.822587 249.829 0.822473C252.617 0.821437 256.881 0.711334 259.091 0.986725C257.124 0.876135 255.25 0.993469 253.293 1.02957C253.866 0.758441 250.414 1.23848 252.433 0.925626C251.504 0.993487 243.467 1.04776 242.784 0.988312C242.783 0.988312 242.783 0.988312 242.782 0.988312ZM146.145 0.862941C146.656 0.696694 144.035 0.734091 143.812 0.926419C144.158 0.953111 146.082 0.881783 146.145 0.862941ZM158.239 0.457469C158.482 0.428773 158.713 0.103816 159.99 0.268619C159.991 0.268619 159.992 0.268619 159.993 0.268619C160.367 0.316748 159.941 0.395928 160.01 0.424142C160.035 0.435663 161.199 0.597311 160.232 0.623307C158.758 0.663192 160.093 0.38156 159.307 0.37812C159.211 0.377853 157.723 0.553751 157.809 0.592361C157.818 0.596859 158.266 0.559649 158.34 0.575698C158.619 0.636025 158.483 0.737501 158.523 0.742331C158.652 0.754705 161.004 0.581826 161.347 0.732809C161.458 0.781495 157.596 0.893807 157.445 0.868495C157.35 0.852544 157.39 0.570868 157.292 0.543165C157.241 0.529366 155.688 0.634919 155.486 0.609025C155.427 0.601535 155.383 0.593461 155.35 0.586807C155.585 0.673954 154.178 0.667679 154.221 0.56935C154.246 0.530704 155.214 0.553073 155.249 0.559829C155.264 0.562689 155.277 0.56663 155.289 0.56935C155.089 0.463146 158.367 0.467937 157.659 0.30988C158.61 0.223294 157.525 0.541744 158.239 0.457469ZM162.807 0.283695C162.709 0.313318 162.611 0.342942 162.513 0.372565C164.176 0.300058 166.096 0.442661 168.013 0.441599C168.499 0.441545 167.939 0.260372 168.577 0.30988C169.088 0.349556 169.653 0.517599 169.375 0.555068C169.307 0.564416 168.268 0.454965 167.747 0.466197C166.211 0.499451 166.599 0.654818 166.509 0.659015C166.41 0.663431 165.443 0.55417 164.915 0.559035C163.588 0.57161 162.981 0.666999 161.167 0.542372C162.214 0.439976 161.641 0.217529 162.807 0.283695ZM224.82 0.614579C224.883 0.516788 225.972 0.603551 226.368 0.589188C226.306 0.687221 225.216 0.600208 224.82 0.614579ZM62.5806 0.487621C62.2462 0.648097 64.7526 0.687832 64.092 0.554275C63.9459 0.524633 62.8955 0.488763 62.5806 0.487621ZM73.8402 0.58522C74.1755 0.540853 72.8254 0.425313 72.8279 0.549513C72.8299 0.589341 73.797 0.59099 73.8402 0.58522ZM184.313 0.441599C184.376 0.436574 185.298 0.472316 185.327 0.48048C185.938 0.650873 182.903 0.55239 184.313 0.441599ZM87.5281 0.387642C86.3595 0.492826 89.877 0.538416 88.8022 0.404305C88.7486 0.397773 87.5843 0.38253 87.5281 0.387642ZM92.4173 0.358283C92.1371 0.36392 90.8931 0.311694 90.8768 0.360663C90.8519 0.439665 92.2759 0.493645 92.4173 0.358283ZM207.447 0.390816C207.312 0.210002 208.953 0.346932 209.523 0.324162C209.659 0.505102 208.018 0.367982 207.447 0.390816ZM197.093 0.25751C204.009 0.114973 202.484 0.50129 196.681 0.345587C196.673 0.229589 196.657 0.266487 197.093 0.25751ZM205.949 0.278934C205.697 0.39477 204.912 0.360421 204.381 0.351141C204.477 0.270606 205.566 0.299752 205.949 0.278934ZM59.5961 0.23926C60.0298 0.0929327 61.9505 0.273329 61.609 0.333685C61.5295 0.346719 59.4368 0.31973 59.5961 0.23926ZM184.892 0.286869C184.731 0.111022 186.808 0.182751 186.967 0.221803C187.608 0.378883 185.06 0.248057 184.892 0.286869ZM217.263 0.236086C217.63 0.0983477 218.671 0.169191 219.341 0.17102C219.036 0.288796 217.831 0.238564 217.263 0.236086ZM212.427 0.128172C212.469 0.122885 213.404 0.13532 213.445 0.141661C214.211 0.276193 211.568 0.241739 212.427 0.128172ZM10.3829 0.00121403C10.4141 -0.00322533 11.1216 0.00555801 11.1462 0.0107355C11.7777 0.142977 9.65427 0.115955 10.3829 0.00121403Z" fill="var(--stroke-0, #B6A152)"/>
</svg>
