<svg width="281" height="6" viewBox="0 0 282 7" fill="none" xmlns="http://www.w3.org/2000/svg" aria-hidden="true">
  <path d="M0.500048 3.5C6.35421 -0.5 12.2084 -0.5 18.0625 3.5C23.9167 7.5 29.7709 7.5 35.625 3.5C41.4792 -0.5 47.3334 -0.5 53.1875 3.5C59.0417 7.5 64.8959 7.5 70.75 3.5C76.6042 -0.5 82.4584 -0.5 88.3125 3.5C94.1667 7.5 100.021 7.5 105.875 3.5C111.729 -0.5 117.583 -0.5 123.438 3.5C129.292 7.5 135.146 7.5 141 3.5C146.854 -0.5 152.708 -0.5 158.563 3.5C164.417 7.5 170.271 7.5 176.125 3.5C181.979 -0.5 187.833 -0.5 193.688 3.5C199.542 7.5 205.396 7.5 211.25 3.5C217.104 -0.5 222.958 -0.5 228.813 3.5C234.667 7.5 240.521 7.5 246.375 3.5C252.229 -0.5 258.083 -0.5 263.938 3.5C269.792 7.5 275.646 7.5 281.5 3.5" stroke="#ffffff" stroke-linecap="round"/>
</svg>
